<?xml version="1.0" encoding="UTF-8"?>
<svg id="Layer_1" data-name="Layer 1" xmlns="http://www.w3.org/2000/svg" viewBox="0 0 661.74 1154.03">
  <defs>
    <style>
      .cls-1 {
        fill: #fff;
        stroke: #231f20;
        stroke-miterlimit: 10;
        stroke-width: 14px;
      }

      .cls-2 {
        fill: #231f20;
        stroke-width: 0px;
      }
    </style>
  </defs>
  <path class="cls-1" d="m475.92,565.74h-148.03c-20.67,0-37.43,16.76-37.43,37.43v537.63c0,3.45,2.79,6.24,6.24,6.24h272.79c47.09,0,85.26-38.17,85.26-85.26v-317.21c0-98.76-80.06-178.83-178.83-178.83Zm-21.51,229.98c-40.19,0-72.78-32.58-72.78-72.78s32.58-72.78,72.78-72.78,72.78,32.58,72.78,72.78-32.58,72.78-72.78,72.78Z"/>
  <rect class="cls-2" x="347.14" y="876.2" width="214.53" height="214.53" rx="107.27" ry="107.27"/>
  <path class="cls-2" d="m454.41,615.68h0c-59.24,0-107.27,48.02-107.27,107.27h0c0,59.24,48.02,107.27,107.27,107.27h0c59.24,0,107.27-48.02,107.27-107.27h0c0-59.24-48.02-107.27-107.27-107.27Zm0,180.04c-40.19,0-72.78-32.58-72.78-72.78s32.58-72.78,72.78-72.78,72.78,32.58,72.78,72.78-32.58,72.78-72.78,72.78Z"/>
  <path class="cls-1" d="m7,7h207.48c20.97,0,38,17.03,38,38v1102.03H7V7h0Z"/>
</svg>